<mxfile host="app.diagrams.net" modified="2023-12-08T06:37:56.162Z" agent="Mozilla/5.0 (Windows NT 10.0; Win64; x64) AppleWebKit/537.36 (KHTML, like Gecko) Chrome/118.0.0.0 Safari/537.36 OPR/104.0.0.0 (Edition Yx GX)" etag="v1qlakeegVr11dhUTFZt" version="22.1.7" type="github">
  <diagram id="C5RBs43oDa-KdzZeNtuy" name="Page-1">
    <mxGraphModel dx="1266" dy="689" grid="1" gridSize="10" guides="1" tooltips="1" connect="1" arrows="1" fold="1" page="1" pageScale="1" pageWidth="827" pageHeight="1169" math="0" shadow="0">
      <root>
        <mxCell id="WIyWlLk6GJQsqaUBKTNV-0" />
        <mxCell id="WIyWlLk6GJQsqaUBKTNV-1" parent="WIyWlLk6GJQsqaUBKTNV-0" />
        <mxCell id="UEU4tBMXwbq1f63mfYmd-3" style="edgeStyle=orthogonalEdgeStyle;rounded=0;orthogonalLoop=1;jettySize=auto;html=1;entryX=0.5;entryY=0;entryDx=0;entryDy=0;" edge="1" parent="WIyWlLk6GJQsqaUBKTNV-1" source="UEU4tBMXwbq1f63mfYmd-0" target="UEU4tBMXwbq1f63mfYmd-2">
          <mxGeometry relative="1" as="geometry" />
        </mxCell>
        <mxCell id="UEU4tBMXwbq1f63mfYmd-0" value="FilteredString(arr)" style="strokeWidth=2;html=1;shape=mxgraph.flowchart.start_1;whiteSpace=wrap;" vertex="1" parent="WIyWlLk6GJQsqaUBKTNV-1">
          <mxGeometry x="245" y="90" width="130" height="40" as="geometry" />
        </mxCell>
        <mxCell id="UEU4tBMXwbq1f63mfYmd-7" value="" style="edgeStyle=orthogonalEdgeStyle;rounded=0;orthogonalLoop=1;jettySize=auto;html=1;" edge="1" parent="WIyWlLk6GJQsqaUBKTNV-1" source="UEU4tBMXwbq1f63mfYmd-2" target="UEU4tBMXwbq1f63mfYmd-6">
          <mxGeometry relative="1" as="geometry" />
        </mxCell>
        <mxCell id="UEU4tBMXwbq1f63mfYmd-2" value="count = 0" style="rounded=1;whiteSpace=wrap;html=1;absoluteArcSize=1;arcSize=14;strokeWidth=2;" vertex="1" parent="WIyWlLk6GJQsqaUBKTNV-1">
          <mxGeometry x="260" y="160" width="100" height="30" as="geometry" />
        </mxCell>
        <mxCell id="UEU4tBMXwbq1f63mfYmd-9" value="" style="edgeStyle=orthogonalEdgeStyle;rounded=0;orthogonalLoop=1;jettySize=auto;html=1;" edge="1" parent="WIyWlLk6GJQsqaUBKTNV-1" source="UEU4tBMXwbq1f63mfYmd-6" target="UEU4tBMXwbq1f63mfYmd-8">
          <mxGeometry relative="1" as="geometry" />
        </mxCell>
        <mxCell id="UEU4tBMXwbq1f63mfYmd-20" style="edgeStyle=orthogonalEdgeStyle;rounded=0;orthogonalLoop=1;jettySize=auto;html=1;entryX=0.5;entryY=0;entryDx=0;entryDy=0;" edge="1" parent="WIyWlLk6GJQsqaUBKTNV-1" source="UEU4tBMXwbq1f63mfYmd-6" target="UEU4tBMXwbq1f63mfYmd-19">
          <mxGeometry relative="1" as="geometry">
            <Array as="points">
              <mxPoint x="430" y="235" />
              <mxPoint x="430" y="450" />
              <mxPoint x="310" y="450" />
            </Array>
          </mxGeometry>
        </mxCell>
        <mxCell id="UEU4tBMXwbq1f63mfYmd-6" value="i = 0; i &amp;lt; arr.length; i ++" style="shape=hexagon;perimeter=hexagonPerimeter2;whiteSpace=wrap;html=1;fixedSize=1;" vertex="1" parent="WIyWlLk6GJQsqaUBKTNV-1">
          <mxGeometry x="230" y="220" width="160" height="30" as="geometry" />
        </mxCell>
        <mxCell id="UEU4tBMXwbq1f63mfYmd-12" value="" style="edgeStyle=orthogonalEdgeStyle;rounded=0;orthogonalLoop=1;jettySize=auto;html=1;" edge="1" parent="WIyWlLk6GJQsqaUBKTNV-1" source="UEU4tBMXwbq1f63mfYmd-8" target="UEU4tBMXwbq1f63mfYmd-10">
          <mxGeometry relative="1" as="geometry" />
        </mxCell>
        <mxCell id="UEU4tBMXwbq1f63mfYmd-16" value="Yes&lt;br&gt;" style="edgeLabel;html=1;align=center;verticalAlign=middle;resizable=0;points=[];" vertex="1" connectable="0" parent="UEU4tBMXwbq1f63mfYmd-12">
          <mxGeometry x="0.2731" y="3" relative="1" as="geometry">
            <mxPoint as="offset" />
          </mxGeometry>
        </mxCell>
        <mxCell id="UEU4tBMXwbq1f63mfYmd-15" style="edgeStyle=orthogonalEdgeStyle;rounded=0;orthogonalLoop=1;jettySize=auto;html=1;" edge="1" parent="WIyWlLk6GJQsqaUBKTNV-1" source="UEU4tBMXwbq1f63mfYmd-8">
          <mxGeometry relative="1" as="geometry">
            <mxPoint x="310" y="430" as="targetPoint" />
            <Array as="points">
              <mxPoint x="390" y="305" />
              <mxPoint x="390" y="430" />
            </Array>
          </mxGeometry>
        </mxCell>
        <mxCell id="UEU4tBMXwbq1f63mfYmd-17" value="No&lt;br&gt;" style="edgeLabel;html=1;align=center;verticalAlign=middle;resizable=0;points=[];" vertex="1" connectable="0" parent="UEU4tBMXwbq1f63mfYmd-15">
          <mxGeometry x="-0.3719" y="-1" relative="1" as="geometry">
            <mxPoint as="offset" />
          </mxGeometry>
        </mxCell>
        <mxCell id="UEU4tBMXwbq1f63mfYmd-18" style="edgeStyle=orthogonalEdgeStyle;rounded=0;orthogonalLoop=1;jettySize=auto;html=1;entryX=0;entryY=0.5;entryDx=0;entryDy=0;" edge="1" parent="WIyWlLk6GJQsqaUBKTNV-1" target="UEU4tBMXwbq1f63mfYmd-6">
          <mxGeometry relative="1" as="geometry">
            <mxPoint x="180" y="350" as="targetPoint" />
            <mxPoint x="310" y="430" as="sourcePoint" />
            <Array as="points">
              <mxPoint x="200" y="430" />
              <mxPoint x="200" y="235" />
            </Array>
          </mxGeometry>
        </mxCell>
        <mxCell id="UEU4tBMXwbq1f63mfYmd-8" value="arr[i].length &amp;lt;=3" style="strokeWidth=2;html=1;shape=mxgraph.flowchart.decision;whiteSpace=wrap;" vertex="1" parent="WIyWlLk6GJQsqaUBKTNV-1">
          <mxGeometry x="240" y="280" width="140" height="50" as="geometry" />
        </mxCell>
        <mxCell id="UEU4tBMXwbq1f63mfYmd-13" style="edgeStyle=orthogonalEdgeStyle;rounded=0;orthogonalLoop=1;jettySize=auto;html=1;" edge="1" parent="WIyWlLk6GJQsqaUBKTNV-1" source="UEU4tBMXwbq1f63mfYmd-10">
          <mxGeometry relative="1" as="geometry">
            <mxPoint x="310" y="430" as="targetPoint" />
          </mxGeometry>
        </mxCell>
        <mxCell id="UEU4tBMXwbq1f63mfYmd-10" value="count ++" style="rounded=1;whiteSpace=wrap;html=1;absoluteArcSize=1;arcSize=14;strokeWidth=2;" vertex="1" parent="WIyWlLk6GJQsqaUBKTNV-1">
          <mxGeometry x="260" y="360" width="100" height="30" as="geometry" />
        </mxCell>
        <mxCell id="UEU4tBMXwbq1f63mfYmd-41" value="" style="edgeStyle=orthogonalEdgeStyle;rounded=0;orthogonalLoop=1;jettySize=auto;html=1;entryX=0.5;entryY=0;entryDx=0;entryDy=0;" edge="1" parent="WIyWlLk6GJQsqaUBKTNV-1" source="UEU4tBMXwbq1f63mfYmd-19" target="UEU4tBMXwbq1f63mfYmd-32">
          <mxGeometry relative="1" as="geometry" />
        </mxCell>
        <mxCell id="UEU4tBMXwbq1f63mfYmd-19" value="strint[] resilt = new string[count]&lt;br&gt;index = 0" style="rounded=1;whiteSpace=wrap;html=1;absoluteArcSize=1;arcSize=14;strokeWidth=2;" vertex="1" parent="WIyWlLk6GJQsqaUBKTNV-1">
          <mxGeometry x="200" y="470" width="220" height="40" as="geometry" />
        </mxCell>
        <mxCell id="UEU4tBMXwbq1f63mfYmd-31" value="" style="edgeStyle=orthogonalEdgeStyle;rounded=0;orthogonalLoop=1;jettySize=auto;html=1;" edge="1" parent="WIyWlLk6GJQsqaUBKTNV-1" source="UEU4tBMXwbq1f63mfYmd-32" target="UEU4tBMXwbq1f63mfYmd-38">
          <mxGeometry relative="1" as="geometry" />
        </mxCell>
        <mxCell id="UEU4tBMXwbq1f63mfYmd-43" value="" style="edgeStyle=orthogonalEdgeStyle;rounded=0;orthogonalLoop=1;jettySize=auto;html=1;" edge="1" parent="WIyWlLk6GJQsqaUBKTNV-1" source="UEU4tBMXwbq1f63mfYmd-32" target="UEU4tBMXwbq1f63mfYmd-42">
          <mxGeometry relative="1" as="geometry">
            <Array as="points">
              <mxPoint x="450" y="555" />
              <mxPoint x="450" y="810" />
            </Array>
          </mxGeometry>
        </mxCell>
        <mxCell id="UEU4tBMXwbq1f63mfYmd-32" value="i = 0; i &amp;lt; arr.length; i ++" style="shape=hexagon;perimeter=hexagonPerimeter2;whiteSpace=wrap;html=1;fixedSize=1;" vertex="1" parent="WIyWlLk6GJQsqaUBKTNV-1">
          <mxGeometry x="230" y="540" width="160" height="30" as="geometry" />
        </mxCell>
        <mxCell id="UEU4tBMXwbq1f63mfYmd-33" value="" style="edgeStyle=orthogonalEdgeStyle;rounded=0;orthogonalLoop=1;jettySize=auto;html=1;" edge="1" parent="WIyWlLk6GJQsqaUBKTNV-1" source="UEU4tBMXwbq1f63mfYmd-38" target="UEU4tBMXwbq1f63mfYmd-40">
          <mxGeometry relative="1" as="geometry" />
        </mxCell>
        <mxCell id="UEU4tBMXwbq1f63mfYmd-34" value="Yes&lt;br&gt;" style="edgeLabel;html=1;align=center;verticalAlign=middle;resizable=0;points=[];" vertex="1" connectable="0" parent="UEU4tBMXwbq1f63mfYmd-33">
          <mxGeometry x="0.2731" y="3" relative="1" as="geometry">
            <mxPoint as="offset" />
          </mxGeometry>
        </mxCell>
        <mxCell id="UEU4tBMXwbq1f63mfYmd-35" style="edgeStyle=orthogonalEdgeStyle;rounded=0;orthogonalLoop=1;jettySize=auto;html=1;" edge="1" parent="WIyWlLk6GJQsqaUBKTNV-1" source="UEU4tBMXwbq1f63mfYmd-38">
          <mxGeometry relative="1" as="geometry">
            <mxPoint x="310" y="750" as="targetPoint" />
            <Array as="points">
              <mxPoint x="400" y="625" />
              <mxPoint x="400" y="750" />
            </Array>
          </mxGeometry>
        </mxCell>
        <mxCell id="UEU4tBMXwbq1f63mfYmd-36" value="No&lt;br&gt;" style="edgeLabel;html=1;align=center;verticalAlign=middle;resizable=0;points=[];" vertex="1" connectable="0" parent="UEU4tBMXwbq1f63mfYmd-35">
          <mxGeometry x="-0.3719" y="-1" relative="1" as="geometry">
            <mxPoint as="offset" />
          </mxGeometry>
        </mxCell>
        <mxCell id="UEU4tBMXwbq1f63mfYmd-37" style="edgeStyle=orthogonalEdgeStyle;rounded=0;orthogonalLoop=1;jettySize=auto;html=1;entryX=0;entryY=0.5;entryDx=0;entryDy=0;" edge="1" parent="WIyWlLk6GJQsqaUBKTNV-1" target="UEU4tBMXwbq1f63mfYmd-32">
          <mxGeometry relative="1" as="geometry">
            <mxPoint x="180" y="670" as="targetPoint" />
            <mxPoint x="310" y="750" as="sourcePoint" />
            <Array as="points">
              <mxPoint x="200" y="750" />
              <mxPoint x="200" y="555" />
            </Array>
          </mxGeometry>
        </mxCell>
        <mxCell id="UEU4tBMXwbq1f63mfYmd-38" value="arr[i].length &amp;lt;=3" style="strokeWidth=2;html=1;shape=mxgraph.flowchart.decision;whiteSpace=wrap;" vertex="1" parent="WIyWlLk6GJQsqaUBKTNV-1">
          <mxGeometry x="240" y="600" width="140" height="50" as="geometry" />
        </mxCell>
        <mxCell id="UEU4tBMXwbq1f63mfYmd-39" style="edgeStyle=orthogonalEdgeStyle;rounded=0;orthogonalLoop=1;jettySize=auto;html=1;" edge="1" parent="WIyWlLk6GJQsqaUBKTNV-1" source="UEU4tBMXwbq1f63mfYmd-40">
          <mxGeometry relative="1" as="geometry">
            <mxPoint x="310" y="750" as="targetPoint" />
          </mxGeometry>
        </mxCell>
        <mxCell id="UEU4tBMXwbq1f63mfYmd-40" value="result[index] = arr[i]&lt;br&gt;index ++;" style="rounded=1;whiteSpace=wrap;html=1;absoluteArcSize=1;arcSize=14;strokeWidth=2;" vertex="1" parent="WIyWlLk6GJQsqaUBKTNV-1">
          <mxGeometry x="240" y="680" width="140" height="40" as="geometry" />
        </mxCell>
        <mxCell id="UEU4tBMXwbq1f63mfYmd-42" value="return result" style="whiteSpace=wrap;html=1;" vertex="1" parent="WIyWlLk6GJQsqaUBKTNV-1">
          <mxGeometry x="250" y="790" width="120" height="40" as="geometry" />
        </mxCell>
      </root>
    </mxGraphModel>
  </diagram>
</mxfile>
